<svg xmlns="http://www.w3.org/2000/svg" viewBox="0 0 800 500">
  <defs>
    <linearGradient id="bg" x1="0%" y1="0%" x2="100%" y2="100%">
      <stop offset="0%" stop-color="#0f2027"/>
      <stop offset="100%" stop-color="#203a43"/>
    </linearGradient>
  </defs>
  <rect width="800" height="500" fill="url(#bg)"/>
  <g fill="none" stroke="#00b8d4" stroke-width="3">
    <rect x="250" y="100" width="300" height="200" rx="15"/>
    <rect x="280" y="130" width="80" height="60" rx="5"/>
    <rect x="390" y="130" width="80" height="60" rx="5"/>
    <rect x="500" y="130" width="80" height="60" rx="5"/>
    <rect x="280" y="220" width="240" height="50" rx="5"/>
    <path d="M250,100 L250,80 L300,80 L300,100"/>
    <path d="M350,80 L350,50 L400,50 L400,80"/>
    <path d="M450,80 L450,50 L500,50 L500,80"/>
    <path d="M550,80 L550,80 L600,80 L600,100"/>
  </g>
  <circle cx="400" cy="140" r="12" fill="#00b8d4" opacity="0.5"/>
  <text x="400" y="420" text-anchor="middle" fill="#00b8d4" font-family="Arial" font-size="48" font-weight="bold">Hospital</text>
</svg>